{"accessors":[{"bufferView":0,"byteOffset":0,"componentType":5126,"count":3948,"max":[93.890503,23.060635,285.906982],"min":[-235.303009,-80.159935,-132.194702],"normalized":false,"type":"VEC3"},{"bufferView":1,"byteOffset":0,"componentType":5126,"count":3948,"max":[1,0.672641,1,1],"min":[-1,-0.712199,-1,-1],"normalized":false,"type":"VEC4"},{"bufferView":2,"byteOffset":0,"componentType":5126,"count":3948,"max":[1,1,1],"min":[-1,-1,-1],"normalized":false,"type":"VEC3"},{"bufferView":3,"byteOffset":0,"componentType":5126,"count":3948,"max":[0.875,0.833333],"min":[0,0],"normalized":false,"type":"VEC2"},{"bufferView":4,"byteOffset":0,"componentType":5125,"count":3546,"max":[3545],"min":[0],"normalized":false,"type":"SCALAR"},{"bufferView":5,"byteOffset":0,"componentType":5126,"count":3948,"max":[93.890503,23.060635,285.906982],"min":[-235.303009,-80.159935,-132.194702],"normalized":false,"type":"VEC3"},{"bufferView":6,"byteOffset":0,"componentType":5126,"count":3948,"max":[1,0.672641,1,1],"min":[-1,-0.712199,-1,-1],"normalized":false,"type":"VEC4"},{"bufferView":7,"byteOffset":0,"componentType":5126,"count":3948,"max":[1,1,1],"min":[-1,-1,-1],"normalized":false,"type":"VEC3"},{"bufferView":8,"byteOffset":0,"componentType":5126,"count":3948,"max":[0.875,0.833333],"min":[0,0],"normalized":false,"type":"VEC2"},{"bufferView":9,"byteOffset":0,"componentType":5125,"count":3546,"max":[3545],"min":[0],"normalized":false,"type":"SCALAR"}],"asset":{"generator":"Godot Engine v4.2.2.stable.official@15073afe3856abd2aa1622492fe50026c7d63dc1","version":"2.0"},"bufferViews":[{"buffer":0,"byteLength":47376,"byteOffset":0},{"buffer":0,"byteLength":63168,"byteOffset":47376},{"buffer":0,"byteLength":47376,"byteOffset":110544},{"buffer":0,"byteLength":31584,"byteOffset":157920},{"buffer":0,"byteLength":14184,"byteOffset":189504},{"buffer":0,"byteLength":47376,"byteOffset":203688},{"buffer":0,"byteLength":63168,"byteOffset":251064},{"buffer":0,"byteLength":47376,"byteOffset":314232},{"buffer":0,"byteLength":31584,"byteOffset":361608},{"buffer":0,"byteLength":14184,"byteOffset":393192}],"buffers":[{"byteLength":407376,"uri":"hill0.bin"}],"extensionsUsed":["GODOT_single_root"],"images":[{"uri":"textures%2F_albedo000.png"},{"uri":"textures%2F_albedo002.png"}],"materials":[{"extensions":{},"pbrMetallicRoughness":{"baseColorFactor":[0.99999988079071,0.99999988079071,0.99999988079071,1],"baseColorTexture":{"index":0},"metallicFactor":0,"roughnessFactor":1}},{"extensions":{},"pbrMetallicRoughness":{"baseColorFactor":[0.99999988079071,0.99999988079071,0.99999988079071,1],"baseColorTexture":{"index":1},"metallicFactor":0,"roughnessFactor":1}}],"meshes":[{"extras":{"targetNames":[]},"primitives":[{"attributes":{"NORMAL":2,"POSITION":0,"TANGENT":1,"TEXCOORD_0":3},"indices":4,"material":0,"mode":4}]},{"extras":{"targetNames":[]},"primitives":[{"attributes":{"NORMAL":7,"POSITION":5,"TANGENT":6,"TEXCOORD_0":8},"indices":9,"material":1,"mode":4}]}],"nodes":[{"children":[1,2],"extensions":{},"name":"Node3D"},{"extensions":{},"mesh":0,"name":"hill2","rotation":[0,0.951261222362518,0,-0.30838620662689],"translation":[297.026824951172,-45.6359558105469,61.1459045410156]},{"children":[3,4,5,6,7,8],"extensions":{},"mesh":1,"name":"hill3","rotation":[0,-0.52525627613068,0,0.850944101810455],"translation":[698.354919433594,-45.807258605957,-51.2518005371094]},{"extensions":{},"name":"CSGTorus3D4","translation":[-31.2939147949219,-23.3236999511719,178.786026000977]},{"extensions":{},"name":"CSGTorus3D6","translation":[-62.8370018005371,-23.3236999511719,42.6022987365723]},{"extensions":{},"name":"CSGTorus3D7","translation":[-128.182006835938,-23.3236999511719,-25.0736999511719]},{"extensions":{},"name":"CSGTorus3D8","translation":[-13.2305002212524,-33.7756004333496,175.738998413086]},{"extensions":{},"name":"CSGTorus3D9","translation":[-37.6999816894531,-32.6268005371094,119.307998657227]},{"extensions":{},"name":"CSGTorus3D10","translation":[-47.2463989257813,-33.1521987915039,36.4197998046875]}],"samplers":[{"magFilter":9729,"minFilter":9987,"wrapS":10497,"wrapT":10497}],"scene":0,"scenes":[{"nodes":[0]}],"textures":[{"sampler":0,"source":0},{"sampler":0,"source":1}]}