{"accessors":[{"bufferView":0,"byteOffset":0,"componentType":5126,"count":2208,"max":[1.100982,1.055,16.90893],"min":[-5.329301,0,-17.748508],"normalized":false,"type":"VEC3"},{"bufferView":1,"byteOffset":0,"componentType":5126,"count":2208,"max":[1,0.999041,1,1],"min":[-1,-0.999995,-1,-1],"normalized":false,"type":"VEC4"},{"bufferView":2,"byteOffset":0,"componentType":5126,"count":2208,"max":[1,1,1],"min":[-1,-1,-1],"normalized":false,"type":"VEC3"},{"bufferView":3,"byteOffset":0,"componentType":5126,"count":2208,"max":[1,1],"min":[0,0],"normalized":false,"type":"VEC2"},{"bufferView":4,"byteOffset":0,"componentType":5125,"count":2208,"max":[2207],"min":[0],"normalized":false,"type":"SCALAR"},{"bufferView":5,"byteOffset":0,"componentType":5126,"count":1182,"max":[-144.587463,136.816711,274.819427],"min":[-343.224884,-105.425919,-40.633385],"normalized":false,"type":"VEC3"},{"bufferView":6,"byteOffset":0,"componentType":5126,"count":1182,"max":[0.939655,0.982145,0.997473,1],"min":[-0.94755,-0.992554,-0.997066,-1],"normalized":false,"type":"VEC4"},{"bufferView":7,"byteOffset":0,"componentType":5126,"count":1182,"max":[0.966958,0.933324,0.981304],"min":[-0.996985,-0.979946,-0.991706],"normalized":false,"type":"VEC3"},{"bufferView":8,"byteOffset":0,"componentType":5126,"count":1182,"max":[0.875,0.833333],"min":[0,0],"normalized":false,"type":"VEC2"},{"bufferView":9,"byteOffset":0,"componentType":5125,"count":1182,"max":[1181],"min":[0],"normalized":false,"type":"SCALAR"},{"bufferView":10,"byteOffset":0,"componentType":5126,"count":3546,"max":[93.890503,23.060635,285.906982],"min":[-235.303009,-80.159935,-132.194702],"normalized":false,"type":"VEC3"},{"bufferView":11,"byteOffset":0,"componentType":5126,"count":3546,"max":[1,0.672641,1,1],"min":[-1,-0.712199,-1,-1],"normalized":false,"type":"VEC4"},{"bufferView":12,"byteOffset":0,"componentType":5126,"count":3546,"max":[1,1,1],"min":[-1,-1,-1],"normalized":false,"type":"VEC3"},{"bufferView":13,"byteOffset":0,"componentType":5126,"count":3546,"max":[0.875,0.833333],"min":[0,0],"normalized":false,"type":"VEC2"},{"bufferView":14,"byteOffset":0,"componentType":5125,"count":3546,"max":[3545],"min":[0],"normalized":false,"type":"SCALAR"}],"asset":{"generator":"Godot Engine v4.2.2.stable.official@15073afe3856abd2aa1622492fe50026c7d63dc1","version":"2.0"},"bufferViews":[{"buffer":0,"byteLength":26496,"byteOffset":0},{"buffer":0,"byteLength":35328,"byteOffset":26496},{"buffer":0,"byteLength":26496,"byteOffset":61824},{"buffer":0,"byteLength":17664,"byteOffset":88320},{"buffer":0,"byteLength":8832,"byteOffset":105984},{"buffer":0,"byteLength":14184,"byteOffset":114816},{"buffer":0,"byteLength":18912,"byteOffset":129000},{"buffer":0,"byteLength":14184,"byteOffset":147912},{"buffer":0,"byteLength":9456,"byteOffset":162096},{"buffer":0,"byteLength":4728,"byteOffset":171552},{"buffer":0,"byteLength":42552,"byteOffset":176280},{"buffer":0,"byteLength":56736,"byteOffset":218832},{"buffer":0,"byteLength":42552,"byteOffset":275568},{"buffer":0,"byteLength":28368,"byteOffset":318120},{"buffer":0,"byteLength":14184,"byteOffset":346488}],"buffers":[{"byteLength":360672,"uri":"testexportlevel0.bin"}],"extensionsUsed":["GODOT_single_root"],"materials":[{"extensions":{},"pbrMetallicRoughness":{"baseColorFactor":[0.99999988079071,0.99999988079071,0.99999988079071,1],"metallicFactor":0,"roughnessFactor":1}},{"extensions":{},"pbrMetallicRoughness":{"baseColorFactor":[0.99999988079071,0.99999988079071,0.99999988079071,1],"metallicFactor":0,"roughnessFactor":1}},{"extensions":{},"pbrMetallicRoughness":{"baseColorFactor":[0.99999988079071,0.99999988079071,0.99999988079071,1],"metallicFactor":0,"roughnessFactor":1}}],"meshes":[{"extras":{"targetNames":[]},"primitives":[{"attributes":{"NORMAL":2,"POSITION":0,"TANGENT":1,"TEXCOORD_0":3},"indices":4,"material":0,"mode":4}]},{"extras":{"targetNames":[]},"primitives":[{"attributes":{"NORMAL":7,"POSITION":5,"TANGENT":6,"TEXCOORD_0":8},"indices":9,"material":1,"mode":4}]},{"extras":{"targetNames":[]},"primitives":[{"attributes":{"NORMAL":12,"POSITION":10,"TANGENT":11,"TEXCOORD_0":13},"indices":14,"material":2,"mode":4}]}],"nodes":[{"children":[1,16,20],"extensions":{},"name":"Node3D"},{"children":[2,3,4,5,6,7,8,9,10,11,12,13,14,15],"extensions":{},"mesh":0,"name":"hilltop2","rotation":[0,0.189806655049324,0,0.981821477413177],"scale":[30.7079982757568,3.01999998092651,10.8365888595581],"translation":[-25.4580001831055,22,54.5019989013672]},{"extensions":{},"name":"CSGPolygon3D","rotation":[0,1,0,-0.00000005403188],"scale":[2.2062771320343,0.999994933605194,0.726572394371033],"translation":[-0.9941520690918,0.00999975204467773,12.7819986343384]},{"extensions":{},"name":"CSGPolygon3D2","rotation":[0,0.170450299978256,0,0.98536628484726],"scale":[0.999999105930328,0.999997854232788,0.594518065452576],"translation":[0.148527026176453,0,-5.34801483154297]},{"extensions":{},"name":"CSGPolygon3D3","scale":[4.99999952316284,0.99999988079071,1],"translation":[-5.07621192932129,0,-8.04259967803955]},{"extensions":{},"name":"CSGPolygon3D4","rotation":[0,0.170450299978256,0,0.98536628484726],"scale":[1.46181917190552,0.999997317790985,0.742043554782867],"translation":[-1.4344334602356,0,-13.2562341690063]},{"extensions":{},"name":"CSGPolygon3D7","rotation":[0,0.0341875106096268,0,0.999415457248688],"scale":[0.93901389837265,0.999993979930878,0.926748871803284],"translation":[-1.5395200252533,0,5.01647853851318]},{"extensions":{},"name":"CSGPolygon3D9","rotation":[0,0.170450419187546,0,0.98536628484726],"scale":[1.31077122688293,0.999995648860931,0.594518065452576],"translation":[-0.85770153999329,0,7.64309978485107]},{"extensions":{},"name":"CSGPolygon3D10","scale":[4.99999904632568,0.999999761581421,0.99999988079071],"translation":[-4.61899995803833,0,12.8929996490479]},{"extensions":{},"name":"CSGPolygon3D11","rotation":[0,0.0341875329613686,0,0.999415457248688],"scale":[1.34195518493652,0.999991774559021,0.722411215305328],"translation":[-2.28573131561279,0,16.7518348693848]},{"extensions":{},"name":"CSGPolygon3D12","scale":[4.99999904632568,0.999999046325684,0.99999988079071],"translation":[-3.91719603538513,0,-0.04427766799927]},{"extensions":{},"name":"CSGPolygon3D5","rotation":[0,1,0,-0.00000020170778],"scale":[4.72799968719482,0.999999642372131,1.57799994945526],"translation":[0.0899758338928223,0.0549999997019768,-1.38118600845337]},{"extensions":{},"name":"CSGPolygon3D6","rotation":[0,1,0,-0.00000025213475],"scale":[4.72799921035767,0.999999046325684,1.57799994945526],"translation":[-0.04300000146031,0.0299999993294477,-7.99300003051758]},{"extensions":{},"name":"CSGPolygon3D8","rotation":[0,0.984481751918793,0,-0.17548689246178],"scale":[2.20627665519714,0.967444777488709,0.803300857543945],"translation":[-2.63229012489319,0.00999975204467773,11.8296613693237]},{"extensions":{},"name":"CSGPolygon3D13","rotation":[0,1,0,-0.00000005403188],"scale":[2.2062771320343,0.99999463558197,0.726572394371033],"translation":[-1.51459169387817,0.00999975204467773,-17.7485084533691]},{"extensions":{},"name":"CSGPolygon3D14","rotation":[0,0.984318971633911,0,0.176397711038589],"scale":[2.20627617835999,0.967443466186523,0.803300738334656],"translation":[-1.67585062980652,0.00999975204467773,-16.9273262023926]},{"children":[17,18,19],"extensions":{},"mesh":1,"name":"mountain2","translation":[46.6137008666992,0,0]},{"extensions":{},"name":"CSGTorus3D","rotation":[0.147095501422882,0.847108066082001,0.410822182893753,-0.30330827832222],"translation":[-233.932006835938,25.6555995941162,183.434005737305]},{"extensions":{},"name":"CSGTorus3D2","rotation":[0.437918990850449,0.704439759254456,0.353812962770462,-0.43221294879913],"translation":[-227.509994506836,42.8685989379883,150.24299621582]},{"extensions":{},"name":"CSGTorus3D3","rotation":[-0.56078779697418,-0.34404894709587,-0.04973538219929,0.751447796821594],"translation":[-250.845001220703,-11.4778003692627,42.8956985473633]},{"children":[21,22,23,24,25,26],"extensions":{},"mesh":2,"name":"hill2","translation":[-13.8052997589111,1.06964004039764,0]},{"extensions":{},"name":"CSGTorus3D4","translation":[-31.2938976287842,-23.3236999511719,178.785995483398]},{"extensions":{},"name":"CSGTorus3D6","translation":[-62.8370018005371,-23.3236999511719,42.6022987365723]},{"extensions":{},"name":"CSGTorus3D7","translation":[-128.182006835938,-23.3236999511719,-25.0736999511719]},{"extensions":{},"name":"CSGTorus3D8","translation":[-13.2305002212524,-33.7756004333496,175.738998413086]},{"extensions":{},"name":"CSGTorus3D9","translation":[-37.7000007629395,-32.6268005371094,119.307998657227]},{"extensions":{},"name":"CSGTorus3D10","translation":[-47.2463989257813,-33.1521987915039,36.4197998046875]}],"scene":0,"scenes":[{"nodes":[0]}]}